<svg xmlns="http://www.w3.org/2000/svg" width="380.000000pt" height="380.000000pt" viewBox="0 0 380.000000 380.000000" preserveAspectRatio="xMidYMid meet"><metadata>
Created by potrace 1.16, written by Peter Selinger 2001-2019
</metadata><g transform="translate(0.000000,380.000000) scale(0.100000,-0.100000)" fill="#000000" stroke="none"><path d="M600 3779 c-287 -75 -507 -296 -580 -583 -19 -77 -20 -110 -20 -1296 0 -1186 1 -1219 20 -1296 73 -288 296 -511 584 -584 77 -19 110 -20 1296 -20 1186 0 1219 1 1296 20 289 74 510 295 584 584 20 77 20 109 20 1296 0 1187 0 1219 -20 1296 -74 290 -294 510 -584 584 -77 20 -109 20 -1300 19 -1179 0 -1224 -1 -1296 -20z m2264 -1215 c47 -48 32 -124 -30 -150 -29 -12 -39 -12 -68 0 -93 39 -66 176 34 176 27 0 45 -7 64 -26z m-2394 -304 c0 -16 4 -30 10 -30 5 0 45 12 87 26 71 24 82 25 131 14 29 -6 65 -22 81 -36 16 -13 34 -24 41 -24 6 0 60 16 118 36 102 35 108 36 161 24 45 -10 65 -22 102 -59 29 -28 51 -61 58 -86 7 -24 11 -136 11 -282 l0 -243 -70 0 -70 0 0 248 c0 211 -2 251 -16 270 -29 41 -59 45 -156 21 l-88 -21 0 -259 0 -259 -70 0 -70 0 0 248 c0 211 -2 251 -16 270 -29 41 -59 45 -156 21 l-88 -21 0 -259 0 -259 -70 0 -70 0 0 345 0 345 70 0 70 0 0 -30z m1100 -221 l0 -251 28 -28 c41 -40 91 -47 166 -23 l61 19 3 267 2 267 70 0 70 0 0 -335 0 -335 -69 0 c-45 0 -71 4 -73 12 -3 8 -17 7 -49 -7 -133 -54 -299 17 -338 144 -7 24 -11 128 -11 280 l0 241 70 0 70 0 0 -251z m988 226 l42 -17 0 -55 c0 -49 -2 -54 -17 -48 -91 38 -198 46 -260 20 -42 -18 -53 -30 -53 -61 0 -41 37 -71 123 -100 104 -34 145 -55 179 -91 76 -80 60 -226 -30 -272 -104 -53 -275 -44 -404 21 -35 17 -38 21 -38 63 0 25 3 45 8 45 4 0 42 -11 85 -25 123 -40 272 -32 297 15 31 59 -7 99 -126 135 -175 53 -230 111 -225 239 1 42 84 120 148 140 64 21 212 16 271 -9z m312 -320 l0 -345 -70 0 -70 0 0 345 0 345 70 0 70 0 0 -345z m581 324 l49 -21 0 -54 0 -53 -42 19 c-57 26 -143 26 -184 1 -73 -44 -109 -127 -102 -230 11 -155 101 -230 261 -218 l68 4 -3 -46 -3 -46 -60 -12 c-76 -16 -163 -4 -232 31 -164 83 -224 338 -118 506 32 50 99 106 149 124 63 22 158 20 217 -5z m94 -1004 l40 -20 0 -85 c-1 -141 -69 -307 -168 -407 -36 -37 -67 -55 -67 -38 0 3 20 66 46 140 56 165 68 261 36 293 -30 30 -115 37 -276 23 -76 -7 -140 -10 -143 -7 -22 21 81 82 187 111 83 22 292 16 345 -10z m-3134 -100 c304 -153 653 -268 1009 -331 121 -22 185 -27 388 -31 270 -6 421 4 632 43 241 44 557 137 727 214 72 33 93 36 111 18 30 -30 14 -55 -70 -109 -367 -235 -809 -359 -1281 -359 -208 0 -309 10 -490 45 -334 67 -676 207 -958 394 -158 105 -205 143 -195 159 4 7 9 12 12 12 2 0 54 -25 115 -55z"></path></g></svg>